# xmcd CD database file
#
# Track frame offsets:
#	150
#	14233
#	28261
#	42280
#	56147
#	70522
#	82352
#	96505
#	111022
#	122969
#	137713
#	151525
#	165744
#	178375
#	191824
#
# Disc length: 2742 seconds
#
# Revision: 0
# Processed by: cddbd v1.4PL0 Copyright (c) Steve Scherf et al.
# Submitted via: CDex 1.50beta10
#
DISCID=df0ab40f
DTITLE=Ella Fitzgerald - Ella Fitzgerald CD1
DYEAR=2000
DGENRE=Jazz
TTITLE0=DON'T WORRY ABOUT ME
TTITLE1=INTO EACH LIFE SOME RAIN MUST FALL
TTITLE2=I MUST HAVE THAT MAN
TTITLE3=KEEP COOL FOOL
TTITLE4=HOLIDAY IN HARLEM
TTITLE5=CRYIN' MOOD
TTITLE6=EVERYONE'S WRONG BUT ME
TTITLE7=DEDICATED TO YOU
TTITLE8=I'M THE LONGEST GAL IN TOWN
TTITLE9=UNDECIDED
TTITLE10=IF YOU EVER CHANGE YOUR MIND
TTITLE11=THIS TIME IT'S REAL
TTITLE12=I'VE GOT A PEBBLE IN MY SHOE
TTITLE13=WE CAN'T GO ON THIS WAY
TTITLE14=YOU'LL NEVER KNOW
EXTD=YEAR: 2000
EXTT0=
EXTT1=
EXTT2=
EXTT3=
EXTT4=
EXTT5=
EXTT6=
EXTT7=
EXTT8=
EXTT9=
EXTT10=
EXTT11=
EXTT12=
EXTT13=
EXTT14=
PLAYORDER=
